# xmcd
#
# Track frame offsets:
#	150
#	30999
#	96314
#	126622
#	158431
#	205608
#	236006
#	250976
#	279480
#
# Disc length: 3924 seconds
#
# Revision: 0
# Processed by: cddbd v1.5.2PL0 Copyright (c) Steve Scherf et al.
# Submitted via: audiograbber 1.83.01
#
DISCID=740f5209
DTITLE=Grateful Dead - 93-06-05 Giants Stadium, East Rutherford NJ
DYEAR=1900
DGENRE=
TTITLE0=Hell In A Bucket
TTITLE1=Sugaree
TTITLE2=Wang Dang Doodle
TTITLE3=Peggy-O
TTITLE4=Eternity
TTITLE5=Candyman
TTITLE6=The Music Never Stopped
TTITLE7=Easy Answers
TTITLE8=The Music Never Stopped
EXTD=
EXTT0=
EXTT1=
EXTT2=
EXTT3=
EXTT4=
EXTT5=
EXTT6=
EXTT7=
EXTT8=
PLAYORDER=
